<svg xmlns="http://www.w3.org/2000/svg" width="82.704" height="87.298" viewBox="0 0 82.704 87.298">
  <path id="Icon_material-location-city" data-name="Icon material-location-city" d="M59.636,44.352V16.784L45.852,3,32.068,16.784v9.189H4.5V90.3H87.2V44.352ZM22.879,81.109H13.689V71.92h9.189Zm0-18.379H13.689V53.541h9.189Zm0-18.379H13.689V35.163h9.189ZM50.447,81.109H41.257V71.92h9.189Zm0-18.379H41.257V53.541h9.189Zm0-18.379H41.257V35.163h9.189Zm0-18.379H41.257V16.784h9.189ZM78.014,81.109H68.825V71.92h9.189Zm0-18.379H68.825V53.541h9.189Z" transform="translate(-4.5 -3)" fill="#fff"/>
</svg>
