<svg xmlns="http://www.w3.org/2000/svg" width="79.814" height="79.814" viewBox="0 0 79.814 79.814">
  <path id="Icon_awesome-phone-alt" data-name="Icon awesome-phone-alt" d="M77.538,56.4l-17.46-7.483a3.741,3.741,0,0,0-4.365,1.076L47.981,59.44A57.782,57.782,0,0,1,20.359,31.818l9.447-7.732a3.732,3.732,0,0,0,1.076-4.365L23.4,2.261A3.766,3.766,0,0,0,19.112.095L2.9,3.836A3.741,3.741,0,0,0,0,7.482,72.325,72.325,0,0,0,72.333,79.815a3.741,3.741,0,0,0,3.648-2.9L79.722,60.7a3.787,3.787,0,0,0-2.184-4.3Z" transform="translate(0 0)" fill="#fff"/>
</svg>
